<?xml version="1.0" standalone="no"?>
<!DOCTYPE svg PUBLIC "-//W3C//DTD SVG 20010904//EN"
 "http://www.w3.org/TR/2001/REC-SVG-20010904/DTD/svg10.dtd">
<svg version="1.0" xmlns="http://www.w3.org/2000/svg"
 width="700.000000pt" height="700.000000pt" viewBox="0 0 700.000000 700.000000"
 preserveAspectRatio="xMidYMid meet">
<metadata>
Created by potrace 1.14, written by Peter Selinger 2001-2017
</metadata>
<g transform="translate(0.000000,700.000000) scale(0.100000,-0.100000)"
fill="#000000" stroke="none">
<path d="M2370 5683 c-602 -724 -1123 -1354 -1158 -1401 -182 -247 -313 -522
-387 -817 -54 -213 -69 -343 -69 -575 0 -232 16 -364 69 -575 191 -759 759
-1377 1490 -1624 296 -99 450 -121 866 -121 l299 0 0 -276 0 -276 358 5 c391
5 443 10 677 72 428 112 807 342 1108 673 335 369 540 826 598 1331 17 153 7
485 -20 636 -66 373 -215 720 -433 1009 -42 55 -569 694 -1172 1419 l-1096
1318 0 259 c0 242 -1 260 -18 260 -11 0 -413 -476 -1112 -1317z m585 -4561
c-6 -16 -64 -11 -228 19 -227 42 -488 152 -677 287 -108 77 -267 225 -350 327
-232 284 -375 647 -399 1013 -25 394 74 776 286 1102 65 100 61 95 798 980
l570 685 3 -2200 c1 -1210 0 -2206 -3 -2213z m1389 3491 c152 -183 276 -336
276 -340 0 -5 -133 -141 -295 -303 l-295 -295 0 655 c0 639 0 654 19 635 10
-11 143 -170 295 -352z m814 -981 c155 -186 231 -289 285 -382 l26 -46 -719
-719 -720 -720 0 570 0 570 472 472 c371 371 475 470 485 460 6 -6 83 -99 171
-205z m519 -1079 c14 -114 8 -368 -11 -488 -99 -618 -518 -1149 -1084 -1375
-158 -64 -402 -120 -518 -120 l-34 0 0 212 0 213 812 812 c447 447 816 813
820 813 3 0 10 -30 15 -67z"/>
</g>
</svg>
