<svg height="200px" width="200px" version="1.1" id="_x32_" xmlns="http://www.w3.org/2000/svg" xmlns:xlink="http://www.w3.org/1999/xlink" viewBox="0 0 512 512" xml:space="preserve" fill="#000000"><g id="SVGRepo_bgCarrier" stroke-width="0"></g><g id="SVGRepo_tracerCarrier" stroke-linecap="round" stroke-linejoin="round"></g><g id="SVGRepo_iconCarrier"> <style type="text/css"> .st0{fill:#000000;} </style> <g> <path class="st0" d="M391.248,228.074c-31.089,0-177.01,0-198.889,0l-1.202-32.734H23.197L2.716,455.967h198l-2.731-74.452 c48.06-18.296,117.453-41.336,178.316-60.047c35.708-10.974,47.046,32.442,47.046,32.442l85.936-18.681 C483.124,215.686,424.866,228.074,391.248,228.074z"></path> <path class="st0" d="M189.509,150.501c0,0,130.761-85.926,168.123-104.606c37.351-18.681,33.617-52.298-3.745-44.83 C316.536,8.543,72.229,66.052,72.229,66.052C48.576,71.856,31.31,92.181,29.39,116.458l-4.498,57.29h165.469L189.509,150.501z"></path> <path class="st0" d="M432.344,477.134c0,19.263,15.603,34.866,34.866,34.866c19.253,0,34.865-15.603,34.865-34.866 c0-19.263-34.677-77.209-34.865-77.209C467.012,399.925,432.344,457.871,432.344,477.134z"></path> </g> </g></svg>