<svg height="200px" width="200px" version="1.1" id="Layer_1" xmlns="http://www.w3.org/2000/svg" xmlns:xlink="http://www.w3.org/1999/xlink" viewBox="0 0 512 512" xml:space="preserve" fill="#000000"><g id="SVGRepo_bgCarrier" stroke-width="0"></g><g id="SVGRepo_tracerCarrier" stroke-linecap="round" stroke-linejoin="round"></g><g id="SVGRepo_iconCarrier"> <circle style="fill:#F2F2F2;" cx="255.994" cy="228.695" r="190.04"></circle> <g> <path style="fill:#666666;" d="M256,427.007c-109.352,0-198.316-88.964-198.316-198.316S146.648,30.374,256,30.374 s198.316,88.964,198.316,198.316C454.315,338.043,365.351,427.007,256,427.007z M256,46.926 c-100.225,0-181.764,81.539-181.764,181.764S155.775,410.455,256,410.455s181.764-81.539,181.764-181.764 C437.763,128.465,356.225,46.926,256,46.926z"></path> <path style="fill:#666666;" d="M256,338.096c-60.327,0-109.405-49.079-109.405-109.405S195.674,119.286,256,119.286 s109.405,49.079,109.405,109.405S316.327,338.096,256,338.096z M256,135.838c-51.199,0-92.853,41.654-92.853,92.853 s41.654,92.853,92.853,92.853s92.853-41.654,92.853-92.853S307.199,135.838,256,135.838z"></path> <path style="fill:#666666;" d="M256,274.258c-25.126,0-45.567-20.441-45.567-45.566s20.441-45.567,45.567-45.567 s45.567,20.441,45.567,45.567S281.125,274.258,256,274.258z M256,199.676c-15.998,0-29.015,13.015-29.015,29.015 c0,15.998,13.017,29.014,29.015,29.014s29.015-13.015,29.015-29.014S271.998,199.676,256,199.676z"></path> </g> <g> <path style="fill:#333333;" d="M256,512c-4.572,0-8.276-3.705-8.276-8.276V8.276C247.724,3.705,251.428,0,256,0 s8.276,3.705,8.276,8.276v495.448C264.276,508.295,260.571,512,256,512z"></path> <path style="fill:#333333;" d="M476.415,236.967H35.585c-4.572,0-8.276-3.705-8.276-8.276s3.704-8.276,8.276-8.276h440.829 c4.572,0,8.276,3.705,8.276,8.276S480.985,236.967,476.415,236.967z"></path> </g> </g></svg>