<svg width="800" height="800" viewBox="0 0 800 800" fill="none" xmlns="http://www.w3.org/2000/svg">
<path d="M394.333 115.328C483.134 115.328 533.51 174.106 540.836 245.091L543.077 245.091C600.224 245.091 646.551 291.298 646.551 348.298C646.551 405.297 600.224 451.504 543.077 451.504H245.589C188.442 451.504 142.115 405.297 142.115 348.298C142.115 291.298 188.442 245.091 245.59 245.091L247.83 245.091C255.199 173.64 305.532 115.328 394.333 115.328ZM310.208 31C355.523 31 395.673 53.8503 419.519 88.7982C411.361 87.8032 402.944 87.3015 394.286 87.3015C309.119 87.3015 247.484 135.477 226.688 208.019L225.575 212.074L223.954 218.737L218.164 219.815C173.095 229.259 136.443 261.864 121.398 304.726C99.8599 287.917 86 261.683 86 232.212C86 181.412 127.182 140.229 177.983 140.229L179.975 140.23C190.882 77.9746 245.235 31 310.208 31Z" fill="#212121"/>
<path fill-rule="evenodd" clip-rule="evenodd" d="M193.474 620.401L193.509 620.448C197.914 625.337 205.456 625.721 210.337 621.307L222.734 610.073C226.62 606.563 232.818 609.381 232.732 614.602L231.515 688.823C231.406 695.431 236.676 700.86 243.278 700.968C249.879 701.076 255.324 695.823 255.432 689.216L256.647 615.175C256.733 609.918 263.08 607.329 266.823 611.024L278.289 622.305C282.986 626.948 290.571 626.856 295.159 622.115C299.709 617.421 299.605 609.928 294.919 605.357L261.387 572.682C252.274 563.796 237.803 563.593 228.463 572.212L194.261 603.753C189.488 608.156 189.139 615.573 193.474 620.401Z" fill="#212121"/>
<path fill-rule="evenodd" clip-rule="evenodd" d="M438.474 618.401L438.509 618.448C442.914 623.337 450.456 623.721 455.337 619.307L467.734 608.073C471.62 604.563 477.818 607.381 477.732 612.602L476.515 686.823C476.406 693.431 481.676 698.86 488.278 698.968C494.879 699.076 500.324 693.823 500.432 687.216L501.647 613.175C501.733 607.918 508.08 605.329 511.823 609.024L523.289 620.305C527.986 624.948 535.571 624.856 540.159 620.115C544.709 615.421 544.605 607.928 539.919 603.357L506.387 570.682C497.274 561.796 482.803 561.593 473.463 570.212L439.261 601.753C434.488 606.156 434.139 613.573 438.474 618.401Z" fill="#212121"/>
<path fill-rule="evenodd" clip-rule="evenodd" d="M315.791 535.051L315.826 535.098C320.232 539.987 327.774 540.372 332.655 535.958L345.052 524.723C348.938 521.214 355.136 524.031 355.05 529.252L353.833 603.474C353.724 610.081 358.994 615.51 365.595 615.618C372.197 615.726 377.642 610.474 377.75 603.866L378.965 529.826C379.051 524.568 385.398 521.979 389.141 525.674L400.607 536.956C405.303 541.598 412.889 541.507 417.476 536.766C422.027 532.072 421.923 524.578 417.237 520.008L383.705 487.332C374.592 478.446 360.121 478.243 350.781 486.862L316.579 518.403C311.806 522.807 311.457 530.223 315.791 535.051Z" fill="#212121"/>
</svg>
