<svg width="377" height="406" viewBox="0 0 377 406" fill="none" xmlns="http://www.w3.org/2000/svg">
<g clip-path="url(#clip0_12_5664)">
<path d="M190.316 0C211.093 93.4947 313.886 176.738 316.578 259.845C312.535 255.253 309.263 252.632 307.095 252.632C294.149 252.632 241.884 346.02 221.218 394.686C210.596 398.184 200.093 400 190.316 400C137.684 400 64 347.368 64 263.158C64 178.947 169.263 94.7368 190.316 0Z" fill="#48ACE4"/>
<path d="M307.47 276C320.021 276 382.777 395.235 376.501 401.511C370.225 407.785 244.716 407.785 238.44 401.511C232.164 395.235 294.919 276 307.47 276ZM307.47 370.133C302.271 370.133 295.955 373.804 295.955 379.003C295.955 384.202 302.271 388.959 307.47 388.959C312.669 388.959 317.007 384.202 317.007 379.003C317.007 373.804 312.669 370.133 307.47 370.133ZM298.057 313.654L298.563 361.225H316.377L316.883 313.654H298.057Z" fill="#DC2626"/>
</g>
<defs>
<clipPath id="clip0_12_5664">
<rect width="377" height="406" fill="white"/>
</clipPath>
</defs>
</svg>
