<svg width="739" height="739" viewBox="0 0 739 739" fill="none" xmlns="http://www.w3.org/2000/svg">
<g clip-path="url(#clip0_11_5691)">
<path d="M566.724 644.667C547.022 664.838 523.483 680.862 497.493 691.796C471.503 702.731 443.587 708.353 415.391 708.333H396.724V132.667L579.057 352C613.573 393.665 631.417 446.647 629.139 500.704C626.861 554.76 604.623 606.053 566.724 644.667Z" fill="white" stroke="#489723" stroke-width="57.6667" stroke-miterlimit="10"/>
<path d="M396.724 420.333L526.391 291" stroke="#489723" stroke-width="57.6667" stroke-miterlimit="10"/>
<path d="M396.724 622L612.724 406" stroke="#489723" stroke-width="57.6667" stroke-miterlimit="10"/>
<path d="M340.724 75V650.667H322.057C293.867 650.649 265.962 645.01 239.977 634.078C213.992 623.146 190.449 607.141 170.724 587C132.757 548.424 110.473 497.12 108.194 443.042C105.915 388.964 123.804 335.967 158.391 294.333L340.724 75Z" fill="white" stroke="#32B2FF" stroke-width="57.6667" stroke-miterlimit="10"/>
</g>
<defs>
<clipPath id="clip0_11_5691">
<rect width="739" height="739" fill="white"/>
</clipPath>
</defs>
</svg>
