<svg width="43" height="43" viewBox="0 0 43 43" fill="none" xmlns="http://www.w3.org/2000/svg">
<g clip-path="url(#clip0_11_5678)">
<path d="M32.93 37.362C32.89 37.322 32.86 37.282 32.83 37.242V37.232C29.43 33.052 27.37 27.552 27.37 21.512C27.37 15.472 29.43 9.97203 32.83 5.79203V5.77203C33.27 5.26203 33.86 4.39203 33.86 3.37203C33.86 -0.197969 29.9 0.00203034 29.9 0.00203034C17.89 0.00203034 9 9.89203 9 21.512C9 33.402 18.08 43.042 30.45 43.042C32.47 43.042 33.85 41.532 33.85 39.662C33.85 38.692 33.39 37.932 33.02 37.472C32.99 37.432 32.96 37.402 32.93 37.362Z" fill="#F09103"/>
</g>
<defs>
<clipPath id="clip0_11_5678">
<rect width="43" height="43" fill="white"/>
</clipPath>
</defs>
</svg>
