<svg width="663" height="800" viewBox="0 0 663 800" fill="none" xmlns="http://www.w3.org/2000/svg">
<path d="M168.695 345.575H207.659L188.495 295.281L168.695 345.575Z" fill="black"/>
<path d="M561.449 101.306L561.449 101.307C688.501 228.359 688.524 434.398 561.45 561.449L565.692 565.692L561.45 561.449L331.366 791.509L101.307 561.45L101.306 561.449C-25.7688 434.397 -25.7688 228.359 101.306 101.307L101.307 101.307C228.383 -25.7691 434.397 -25.7686 561.449 101.306Z" fill="white" stroke="#DC2626" stroke-width="12"/>
<path d="M295.532 81C319.963 191.09 440.835 289.109 444 386.968C439.246 381.56 435.399 378.474 432.849 378.474C417.627 378.474 356.17 488.439 331.869 545.743C319.378 549.862 307.028 552 295.532 552C233.643 552 147 490.026 147 390.868C147 291.711 270.776 192.553 295.532 81Z" fill="#48ACE4"/>
<path d="M433.5 406C448.224 406 521.847 547.012 514.484 554.434C507.122 561.855 359.879 561.855 352.516 554.434C345.153 547.012 418.775 406 433.5 406ZM433.5 517.326C427.401 517.326 419.99 521.668 419.99 527.816C419.99 533.965 427.401 539.59 433.5 539.59C439.599 539.59 444.688 533.965 444.688 527.816C444.688 521.668 439.599 517.326 433.5 517.326ZM422.456 450.531L423.05 506.791H443.949L444.543 450.531H422.456Z" fill="#DC2626"/>
</svg>
