<svg xmlns="http://www.w3.org/2000/svg" xmlns:xlink="http://www.w3.org/1999/xlink" version="1.1" id="Capa_1" x="0px" y="0px" width="150px" height="103px" viewBox="0 0 150 103" enable-background="new 0 0 150 103" xml:space="preserve">
<g>
	<rect x="5.162" y="4.507" fill-rule="evenodd" clip-rule="evenodd" fill="#FFFFFF" width="140.117" height="93.767"/>
	<path fill-rule="evenodd" clip-rule="evenodd" fill="#0AB6E4" d="M114.78,15.729H74.999H35.221c-2.282,0-4.056,1.775-4.056,4.059   v20.297c0,2.029,1.773,3.805,4.056,3.805h39.778h39.781c2.278,0,4.055-1.776,4.055-3.805V19.788   C118.835,17.504,117.059,15.729,114.78,15.729z M92.991,39.577H74.999H57.01V20.043h17.989h17.992V39.577z"/>
	<g>
		<path fill-rule="evenodd" clip-rule="evenodd" fill="#0080BA" d="M34.459,50.232H11.655v42.115h22.804h40.288h40.794h22.804    V50.232h-22.804H74.747H34.459z M52.702,84.227c0,2.284-1.773,4.06-4.054,4.06H34.459H20.271c-2.28,0-4.055-1.775-4.055-4.06    V58.603c0-2.535,1.774-4.311,4.055-4.311h14.188h14.189c2.28,0,4.054,1.775,4.054,4.311V84.227z M97.297,57.589    c0-1.776,1.521-3.297,3.294-3.297h4.054h6.587h4.31h18.243v5.072h-18.243h-4.31v9.387h4.31h14.695v5.073h-14.695h-4.31v9.388h4.31    h18.243v5.074h-18.243h-4.31h-6.587h-4.054c-1.773,0-3.294-1.521-3.294-3.298V57.589z M83.361,54.292h5.32    c2.028,0,3.547,1.521,3.547,3.551v4.566h-8.867h-4.056v-1.775c0-1.016-1.012-2.031-2.025-2.031h-2.533h-2.535    c-1.013,0-2.027,1.016-2.027,2.031v1.775v6.09h4.562h8.106h3.041h2.534c2.026,0,3.8,1.521,3.8,3.549v12.688    c0,2.029-1.773,3.551-3.8,3.551h-4.814h-0.761h-8.106h-8.108h-3.294h-2.534c-2.027,0-3.548-1.521-3.548-3.551v-4.314h6.082h6.84    v1.521c0,1.27,1.015,2.03,2.027,2.03h2.535h2.533c1.014,0,2.025-0.761,2.025-2.03v-1.521v-6.088h-4.559h-8.108h-4.055h-1.519    c-2.027,0-3.803-1.777-3.803-3.806V57.843c0-2.03,1.775-3.551,3.803-3.551h2.025h3.548h8.108h8.106H83.361z"/>
		<polygon fill-rule="evenodd" clip-rule="evenodd" fill="#0080BA" points="29.393,59.618 29.393,82.957 34.459,82.957     39.527,82.957 39.527,59.618 34.459,59.618   "/>
		<path fill-rule="evenodd" clip-rule="evenodd" fill="#0080BA" d="M74.999,0H0v103h74.999H150V0H74.999z M143.919,97.419h-68.92    H6.081V5.582h68.918h68.92V97.419z"/>
	</g>
</g>
</svg>