<?xml version="1.0" encoding="iso-8859-1"?>
<!-- Uploaded to: SVG Repo, www.svgrepo.com, Generator: SVG Repo Mixer Tools -->
<svg fill="#000000" height="800px" width="800px" version="1.1" id="Layer_1" xmlns="http://www.w3.org/2000/svg" xmlns:xlink="http://www.w3.org/1999/xlink" 
	 viewBox="0 0 491.52 491.52" xml:space="preserve">
<g>
	<g>
		<g>
			<path d="M450.549,163.84h-81.92c-11.305,0-20.48,9.155-20.48,20.48v20.48h-81.92v-81.92h20.48c11.305,0,20.48-9.155,20.48-20.48
				V20.48c0-11.325-9.175-20.48-20.48-20.48h-204.8c-11.305,0-20.48,9.155-20.48,20.48v81.92c0,11.326,9.175,20.48,20.48,20.48
				h20.48v152.125c0,18.391,5.53,35.451,14.725,49.951l52.695-52.695c1.905-1.905,4.157-3.4,6.676-4.444
				c2.499-1.044,5.161-1.577,7.823-1.577h40.96c11.305,0,20.48,9.155,20.48,20.48s-9.175,20.48-20.48,20.48h-32.481l-46.715,46.715
				c14.5,9.195,31.539,14.725,49.951,14.725h152.125v20.48c0,11.325,9.175,20.48,20.48,20.48h81.92
				c11.305,0,20.48-9.155,20.48-20.48v-204.8C471.029,172.995,461.854,163.84,450.549,163.84z M122.869,81.92h-20.48V40.96h163.84
				v40.96h-20.48H122.869z M430.069,368.64h-40.96v-20.48V225.28V204.8h40.96V368.64z"/>
			<path d="M97.199,355.021c-7.782-8.724-22.794-8.724-30.577,0l-28.16,31.621c-23.962,23.962-23.962,62.915,0,86.876
				c11.612,11.612,27.034,18.002,43.438,18.002c16.425,0,31.846-6.39,43.459-18.002c23.941-23.962,23.941-62.915,0.799-86.016
				L97.199,355.021z"/>
		</g>
	</g>
</g>
</svg>