<svg width="663" height="800" viewBox="0 0 663 800" fill="none" xmlns="http://www.w3.org/2000/svg">
<path d="M168.695 345.575H207.659L188.495 295.281L168.695 345.575Z" fill="black"/>
<path d="M561.449 101.306L561.449 101.307C688.501 228.359 688.524 434.398 561.45 561.449L565.692 565.692L561.45 561.449L331.366 791.509L101.307 561.45L101.306 561.449C-25.7688 434.397 -25.7688 228.359 101.306 101.307L101.307 101.307C228.383 -25.7691 434.397 -25.7686 561.449 101.306Z" fill="white" stroke="#489723" stroke-width="12"/>
<path d="M467.397 489.435C465.065 489.252 462.494 489.165 459.694 489.165C441.391 489.165 412.882 493.013 373.835 499.837C368.966 486.126 338.085 480.111 338.085 480.111C338.085 480.111 271.455 476.522 228.923 474.226C226.21 474.075 223.585 474 221.058 474C164.723 474 153 508.795 153 508.795V544.839C153.022 565.502 217.397 575.623 217.615 575.667C268.743 585.658 331.592 589 331.592 589C331.592 589 503.816 522.063 508.337 518.15C512.848 514.238 510.877 492.884 467.397 489.435Z" fill="#EAC6BB"/>
<path d="M422 492C408.491 493.792 392.751 496.337 374.749 499.516C372.444 500.543 370.083 501.591 367.658 502.629C320.478 522.839 287.095 527.089 267.418 527.089C263.317 527.089 260 530.432 260 534.539C260 538.668 263.317 542 267.418 542C298.125 542 333.888 533.337 373.716 516.252C397.809 505.906 415.778 495.681 422 492Z" fill="#DBADA2"/>
<path d="M445 328.546C445 393.414 394.184 446 331.5 446C268.816 446 218 393.414 218 328.546C218 225.773 331.5 104 331.5 104C331.5 104 445 225.773 445 328.546Z" fill="#48ACE4"/>
</svg>
